

<!-- This is the SVG Logo image element with a width and height of 229 and 230 respectively and a viewBox of "0 0 229 230", which defines the position and size of the viewport within which the SVG image is displayed. -->
<svg width="229" height="230" viewBox="0 0 229 230" fill="none" xmlns="http://www.w3.org/2000/svg">
<path fill-rule="evenodd" clip-rule="evenodd" d="M83.78 13.904C68.501 21.551 54.875 29.012 53.5 30.483L51 33.158L50.698 63.865L50.396 94.572L26.985 106.265C10.17 114.663 3.07 118.726 1.787 120.684C0.154003 123.176 0 126.534 0 159.632C0 194.517 0.0749992 195.956 2.043 198.676C4.63 202.253 59.014 230 63.437 230C65.162 230 76.207 225.096 90.429 218.015L114.5 206.03L138.571 218.015C152.793 225.096 163.838 230 165.563 230C169.986 230 224.37 202.253 226.957 198.676C228.925 195.956 229 194.517 229 159.632C229 126.534 228.846 123.176 227.213 120.684C225.93 118.726 218.827 114.662 202.004 106.259L178.581 94.56L178.291 64.352C178.016 35.77 177.89 33.991 175.957 31.321C173.349 27.718 118.98 0 114.521 0C112.714 0 100.738 5.417 83.78 13.904ZM133.993 37.237L152.5 46.475V70.508V94.542L133.5 104L114.5 113.458L95.5 104L76.5 94.542V70.508V46.475L94.75 37.294C104.787 32.245 113.559 28.089 114.243 28.057C114.927 28.026 123.814 32.157 133.993 37.237ZM82.993 126.237L101.5 135.475V159.508V183.542L82.5 193L63.5 202.458L44.5 193L25.5 183.542V159.508V135.475L43.75 126.294C53.787 121.245 62.559 117.089 63.243 117.057C63.927 117.026 72.814 121.157 82.993 126.237ZM184.993 126.237L203.5 135.475V159.508V183.542L184.5 193L165.5 202.458L146.5 193L127.5 183.542V159.508V135.475L145.75 126.294C155.787 121.245 164.559 117.089 165.243 117.057C165.927 117.026 174.814 121.157 184.993 126.237Z" fill="black"/>
</svg>
